<svg width="111" height="111" viewBox="0 0 111 111" fill="none" xmlns="http://www.w3.org/2000/svg">
<path fill-rule="evenodd" clip-rule="evenodd" d="M4.99837 33.0767C-1.63827 31.6241 -1.67796 22.1702 4.95074 20.6541L5.26034 20.5906L5.87955 20.4477C13.2942 18.7014 18.9544 12.7004 20.2642 5.1913C21.4709 -1.73044 31.41 -1.73044 32.6166 5.1913C33.2594 8.88385 34.979 12.3042 37.5594 15.0228C40.1398 17.7413 43.4661 19.6369 47.1204 20.4715L47.9301 20.662C54.5588 22.1702 54.5191 31.6161 47.8825 33.0767L47.1839 33.2275C43.5152 34.0288 40.1685 35.9051 37.5711 38.6168C34.9736 41.3285 33.2432 44.7527 32.6008 48.4522C31.402 55.358 21.4788 55.358 20.2801 48.4522C19.6403 44.766 17.9204 41.3528 15.3383 38.6452C12.7562 35.9376 9.42828 34.0576 5.77635 33.2434L5.2524 33.1323L4.99837 33.0767ZM61.5051 27.3059C61.4315 31.0882 59.9315 34.7031 57.3056 37.4266C57.7003 38.0252 58.2007 38.547 58.7822 38.9665C63.5135 42.5385 68.3481 46.7217 73.0716 51.4526C76.6598 55.0405 79.9226 58.676 82.836 62.2639C79.9226 65.8518 76.6598 69.4873 73.0716 73.0751C69.6402 76.513 66.034 79.7718 62.2672 82.8386C58.671 79.9254 55.0431 76.6551 51.4549 73.0751C46.9688 68.6052 42.7965 63.8312 38.9675 58.7871C38.5901 58.2604 38.1288 57.7992 37.6021 57.4218C36.2261 58.9308 34.5535 60.1397 32.689 60.9728C30.8245 61.806 28.8081 62.2455 26.7659 62.2639C21.3121 70.0508 17.2714 77.7505 15.1677 84.6246C12.8893 92.0702 12.278 100.802 17.9938 106.525C21.7091 110.232 26.758 111.24 31.5608 110.954C36.3716 110.668 41.6587 109.057 47.0251 106.62C52.3649 104.134 57.4667 101.166 62.2672 97.7537C67.0626 101.166 72.1591 104.133 77.4934 106.62C82.8598 109.057 88.1469 110.668 92.9577 110.954C97.7605 111.24 102.809 110.24 106.525 106.525C110.232 102.81 111.24 97.7616 110.954 92.9592C110.661 88.1569 109.057 82.8624 106.62 77.4965C104.421 72.6544 101.42 67.5028 97.7526 62.2559C101.42 57.017 104.421 51.8733 106.62 47.0234C109.057 41.6654 110.669 36.3709 110.954 31.5606C111.24 26.7582 110.232 21.7177 106.517 18.0029C100.801 12.2797 92.0686 12.8909 84.6222 15.1691C77.5251 17.344 69.5468 21.5749 61.5051 27.3059ZM26.5516 88.1093C27.9488 83.5371 30.6002 78.0839 34.4425 72.1782C39.9136 78.626 45.9034 84.6152 52.3519 90.0858C49.0781 92.2355 45.6499 94.1405 42.0953 95.7851C37.4909 97.8727 33.6804 98.8967 30.8463 99.0713C27.9964 99.238 26.8532 98.5395 26.4166 98.1029C25.7022 97.3885 24.5272 94.7532 26.5516 88.1093ZM82.4311 95.7851C79.216 94.3245 75.7627 92.4115 72.1745 90.0858C78.6232 84.6125 84.613 78.6207 90.0839 72.1702C92.2362 75.441 94.144 78.8662 95.7917 82.4179C97.8796 87.0218 98.9037 90.8319 99.0783 93.6657C99.245 96.5233 98.5464 97.6584 98.1098 98.095C97.6732 98.5316 96.5221 99.2301 93.6801 99.0634C90.846 98.8888 87.0355 97.8727 82.4311 95.7771L82.4311 95.7851ZM95.7917 42.1019C94.1461 45.6522 92.2383 49.0749 90.0839 52.3417C84.6121 45.8993 78.6223 39.9155 72.1745 34.4499C78.0887 30.616 83.5425 27.9648 88.1152 26.5677C94.7518 24.5356 97.3953 25.7104 98.1098 26.4248C98.5464 26.8694 99.245 28.0124 99.0704 30.8541C98.9116 33.6958 97.8796 37.498 95.7917 42.1019ZM62.2672 70.2017C60.1618 70.2017 58.1425 69.3654 56.6538 67.8767C55.165 66.3881 54.3286 64.3691 54.3286 62.2639C54.3286 60.1587 55.165 58.1396 56.6538 56.651C58.1425 55.1624 60.1618 54.3261 62.2672 54.3261C64.3726 54.3261 66.3918 55.1624 67.8806 56.651C69.3694 58.1396 70.2057 60.1587 70.2057 62.2639C70.2057 64.3691 69.3694 66.3881 67.8806 67.8767C66.3918 69.3653 64.3726 70.2017 62.2672 70.2017Z" fill="#FEE2E2"/>
</svg>
