<svg width="180" height="180" viewBox="0 0 180 180" fill="none" xmlns="http://www.w3.org/2000/svg">
<path fill-rule="evenodd" clip-rule="evenodd" d="M126.362 8.10547C128.718 -2.65665 144.048 -2.72102 146.507 8.02823L146.61 8.53029L146.842 9.53441C149.673 21.5581 159.405 30.7368 171.582 32.8609C182.806 34.8177 182.806 50.9351 171.582 52.8919C165.594 53.9342 160.047 56.7226 155.639 60.9071C151.23 65.0916 148.156 70.4855 146.803 76.4115L146.494 77.7245C144.048 88.4738 128.731 88.4094 126.362 77.6473L126.118 76.5145C124.818 70.5652 121.776 65.1381 117.378 60.9261C112.981 56.714 107.428 53.9079 101.429 52.8661C90.2302 50.9222 90.2302 34.8305 101.429 32.8867C107.406 31.8492 112.941 29.0601 117.332 24.8729C121.723 20.6858 124.771 15.2891 126.092 9.36706L126.272 8.51742L126.362 8.10547ZM135.72 99.738C129.587 99.6186 123.725 97.1862 119.308 92.928C118.338 93.5681 117.491 94.3795 116.811 95.3224C111.019 102.995 104.235 110.835 96.5633 118.494C90.7451 124.313 84.8497 129.604 79.0315 134.329C73.2134 129.604 67.318 124.313 61.4998 118.494C55.9248 112.93 50.6403 107.082 45.6672 100.974C50.3912 95.1422 55.6945 89.2591 61.4998 83.4403C68.7483 76.1657 76.4899 69.3997 84.6695 63.1905C85.5237 62.5786 86.2716 61.8306 86.8835 60.9763C84.4365 58.745 82.4762 56.0328 81.1252 53.0092C79.7741 49.9856 79.0614 46.7158 79.0315 43.4042C66.404 34.5602 53.9182 28.0077 42.7709 24.5962C30.697 20.9016 16.5377 19.9103 7.25693 29.1791C1.24567 35.2039 -0.389078 43.3913 0.0743165 51.1797C0.537711 58.9809 3.15074 67.5546 7.10246 76.257C11.1337 84.9161 15.9463 93.1893 21.4806 100.974C15.9477 108.75 11.135 117.015 7.10246 125.665C3.15074 134.367 0.537711 142.941 0.0743165 150.742C-0.389078 158.531 1.2328 166.718 7.25693 172.743C13.2811 178.755 21.4677 180.39 29.2553 179.926C37.0429 179.45 45.6285 176.849 54.3301 172.897C62.182 169.331 70.536 164.465 79.0444 158.518C87.54 164.465 95.8811 169.331 103.746 172.897C112.435 176.849 121.02 179.463 128.821 179.926C136.608 180.39 144.782 178.755 150.806 172.73C160.087 163.461 159.096 149.3 155.401 137.225C151.875 125.716 145.014 112.779 135.72 99.738ZM37.1201 43.0566C44.5344 45.3223 53.3775 49.622 62.9543 55.8527C52.4984 64.7248 42.7862 74.438 33.915 84.895C30.4289 79.5861 27.3397 74.0268 24.6728 68.2626C21.2875 60.7961 19.627 54.6169 19.3438 50.0211C19.0735 45.3996 20.2062 43.5458 20.9142 42.8378C22.0727 41.6792 26.3462 39.7739 37.1201 43.0566ZM24.6728 133.672C27.0413 128.458 30.1434 122.859 33.915 117.04C42.7905 127.497 52.507 137.21 62.9672 146.082C57.6633 149.572 52.1089 152.666 46.3494 155.338C38.8836 158.724 32.705 160.384 28.1097 160.668C23.4757 160.938 21.635 159.805 20.9271 159.097C20.2191 158.389 19.0864 156.522 19.3567 151.914C19.6398 147.318 21.2875 141.139 24.6857 133.672H24.6728ZM111.727 155.338C105.969 152.669 100.419 149.576 95.1216 146.082C105.569 137.209 115.272 127.496 124.135 117.04C130.352 126.63 134.652 135.474 136.917 142.889C140.212 153.652 138.307 157.938 137.149 159.097C136.428 159.805 134.574 160.938 129.966 160.655C125.358 160.397 119.192 158.724 111.727 155.338ZM66.1595 100.974C66.1595 97.5596 67.5156 94.2852 69.9296 91.871C72.3436 89.4568 75.6177 88.1005 79.0315 88.1005C82.4454 88.1005 85.7195 89.4568 88.1335 91.871C90.5474 94.2852 91.9036 97.5596 91.9036 100.974C91.9036 104.388 90.5474 107.662 88.1335 110.077C85.7195 112.491 82.4454 113.847 79.0315 113.847C75.6177 113.847 72.3436 112.491 69.9296 110.077C67.5156 107.662 66.1595 104.388 66.1595 100.974Z" fill="#DBEAFE"/>
</svg>
