<svg width="508" height="119" viewBox="0 0 508 119" fill="none" xmlns="http://www.w3.org/2000/svg">
<path d="M24.2563 105.778C22.1536 105.778 20.0008 105.602 17.7979 105.252C15.6452 104.952 13.5675 104.501 11.5649 103.9C9.61239 103.3 7.86013 102.549 6.30813 101.647C5.20671 101.047 4.43071 100.271 3.98013 99.3194C3.52955 98.3181 3.35432 97.3168 3.45445 96.3155C3.60465 95.3142 3.98013 94.4381 4.5809 93.6871C5.23174 92.8861 6.03277 92.3855 6.984 92.1852C7.98529 91.9349 9.08671 92.1101 10.2883 92.7109C12.3409 93.8624 14.5688 94.7135 16.9719 95.2642C19.425 95.8149 21.8532 96.0902 24.2563 96.0902C27.911 96.0902 30.5143 95.5395 32.0663 94.4381C33.6183 93.2866 34.3943 91.8598 34.3943 90.1576C34.3943 88.7057 33.8436 87.5542 32.7422 86.7031C31.6408 85.852 29.7133 85.1261 26.9597 84.5253L18.4738 82.723C13.6676 81.7217 10.088 80.0195 7.73497 77.6164C5.432 75.1633 4.28052 71.9591 4.28052 68.004C4.28052 65.5008 4.80619 63.2229 5.85755 61.1702C6.9089 59.1176 8.38581 57.3403 10.2883 55.8384C12.1907 54.3364 14.4436 53.1849 17.047 52.3839C19.7004 51.5829 22.6041 51.1824 25.7582 51.1824C28.5618 51.1824 31.3154 51.5328 34.0188 52.2337C36.7223 52.8846 39.1004 53.8608 41.153 55.1625C42.1543 55.7633 42.8302 56.5393 43.1807 57.4905C43.5812 58.3917 43.7063 59.3178 43.5561 60.2691C43.456 61.1702 43.0805 61.9713 42.4297 62.6722C41.8289 63.3731 41.0529 63.8237 40.1017 64.0239C39.1505 64.2242 37.999 63.9989 36.6472 63.348C34.9951 62.4969 33.2428 61.8711 31.3905 61.4706C29.5381 61.0701 27.6356 60.8699 25.6831 60.8699C23.5804 60.8699 21.7781 61.1452 20.2761 61.6959C18.8243 62.2466 17.6978 63.0226 16.8968 64.0239C16.1458 65.0252 15.7703 66.1767 15.7703 67.4784C15.7703 68.9302 16.296 70.1068 17.3474 71.0079C18.3987 71.9091 20.2261 72.635 22.8294 73.1857L31.3154 74.988C36.2217 76.0394 39.8764 77.7416 42.2795 80.0946C44.6826 82.3976 45.8841 85.4515 45.8841 89.2564C45.8841 91.7597 45.3835 94.0376 44.3822 96.0902C43.3809 98.0928 41.929 99.82 40.0266 101.272C38.1241 102.724 35.8462 103.85 33.1928 104.651C30.5394 105.402 27.5605 105.778 24.2563 105.778ZM70.4126 105.778C66.4075 105.778 62.9029 105.002 59.8991 103.45C56.9453 101.848 54.6673 99.5948 53.0653 96.691C51.4632 93.7873 50.6622 90.3579 50.6622 86.4028C50.6622 83.4489 51.1127 80.7955 52.0139 78.4425C52.9151 76.0895 54.2167 74.0869 55.9189 72.4348C57.6712 70.7826 59.7739 69.531 62.2271 68.6799C64.6802 67.7788 67.4087 67.3282 70.4126 67.3282C71.9646 67.3282 73.6167 67.5284 75.369 67.9289C77.1213 68.2794 78.8485 68.9052 80.5507 69.8064C81.552 70.2569 82.2278 70.9078 82.5783 71.7589C82.9788 72.5599 83.129 73.411 83.0289 74.3122C82.9288 75.1633 82.6033 75.9393 82.0526 76.6402C81.552 77.291 80.9011 77.7416 80.1001 77.9919C79.2991 78.1922 78.3979 78.042 77.3966 77.5413C76.4454 76.9906 75.4441 76.5901 74.3927 76.3398C73.3915 76.0895 72.4402 75.9643 71.5391 75.9643C70.0371 75.9643 68.7104 76.2146 67.5589 76.7153C66.4075 77.1659 65.4312 77.8417 64.6302 78.7429C63.8792 79.594 63.2784 80.6704 62.8278 81.972C62.4273 83.2737 62.2271 84.7757 62.2271 86.4779C62.2271 89.7821 63.0281 92.3855 64.6302 94.2879C66.2823 96.1403 68.5853 97.0665 71.5391 97.0665C72.4402 97.0665 73.3915 96.9664 74.3927 96.7661C75.394 96.5158 76.3953 96.1153 77.3966 95.5646C78.3979 95.0639 79.2991 94.9388 80.1001 95.1891C80.9011 95.4394 81.5269 95.915 81.9775 96.6159C82.4782 97.2668 82.7535 98.0428 82.8036 98.9439C82.9037 99.795 82.7535 100.646 82.353 101.497C82.0026 102.298 81.3517 102.924 80.4005 103.375C78.6983 104.226 76.9961 104.826 75.2939 105.177C73.5917 105.577 71.9646 105.778 70.4126 105.778ZM94.0335 105.552C92.1811 105.552 90.7543 105.027 89.753 103.975C88.8017 102.874 88.3261 101.347 88.3261 99.3945V73.7114C88.3261 71.7088 88.8017 70.1818 89.753 69.1305C90.7543 68.0291 92.1811 67.4784 94.0335 67.4784C95.8358 67.4784 97.2126 68.0291 98.1638 69.1305C99.1651 70.1818 99.6657 71.7088 99.6657 73.7114V99.3945C99.6657 101.347 99.1901 102.874 98.2389 103.975C97.2877 105.027 95.8859 105.552 94.0335 105.552ZM94.0335 61.3204C91.9308 61.3204 90.3037 60.8448 89.1522 59.8936C88.0508 58.8923 87.5001 57.4905 87.5001 55.6882C87.5001 53.8358 88.0508 52.434 89.1522 51.4828C90.3037 50.4815 91.9308 49.9808 94.0335 49.9808C96.1362 49.9808 97.7383 50.4815 98.8397 51.4828C99.9411 52.434 100.492 53.8358 100.492 55.6882C100.492 57.4905 99.9411 58.8923 98.8397 59.8936C97.7383 60.8448 96.1362 61.3204 94.0335 61.3204ZM127.57 105.778C123.214 105.778 119.46 105.002 116.306 103.45C113.202 101.848 110.798 99.6198 109.096 96.7661C107.444 93.8624 106.618 90.458 106.618 86.5529C106.618 82.748 107.419 79.4188 109.021 76.5651C110.623 73.6613 112.851 71.4084 115.705 69.8064C118.609 68.1542 121.888 67.3282 125.542 67.3282C128.196 67.3282 130.599 67.7788 132.752 68.6799C134.905 69.531 136.757 70.7826 138.309 72.4348C139.861 74.0368 141.037 76.0144 141.838 78.3674C142.639 80.6704 143.04 83.2487 143.04 86.1024C143.04 87.0536 142.74 87.7795 142.139 88.2802C141.538 88.7308 140.662 88.956 139.51 88.956H115.93V83.0985H134.854L133.653 84.1499C133.653 82.0972 133.353 80.395 132.752 79.0433C132.151 77.6415 131.275 76.5901 130.123 75.8892C129.022 75.1883 127.645 74.8379 125.993 74.8379C124.141 74.8379 122.564 75.2634 121.262 76.1145C119.96 76.9656 118.959 78.1922 118.258 79.7942C117.557 81.3963 117.207 83.3238 117.207 85.5767V86.1775C117.207 89.9824 118.083 92.786 119.835 94.5883C121.637 96.3906 124.291 97.2918 127.795 97.2918C128.997 97.2918 130.374 97.1416 131.926 96.8412C133.478 96.5408 134.93 96.0652 136.281 95.4144C137.433 94.8637 138.459 94.6884 139.36 94.8887C140.261 95.0389 140.962 95.4394 141.463 96.0902C141.964 96.7411 142.239 97.492 142.289 98.3431C142.389 99.1942 142.214 100.045 141.763 100.896C141.313 101.697 140.562 102.373 139.51 102.924C137.808 103.875 135.881 104.576 133.728 105.027C131.625 105.527 129.573 105.778 127.57 105.778ZM155.343 105.628C153.491 105.628 152.064 105.127 151.062 104.126C150.111 103.124 149.636 101.697 149.636 99.8451V73.1857C149.636 71.3333 150.111 69.9315 151.062 68.9803C152.064 67.979 153.441 67.4784 155.193 67.4784C156.995 67.4784 158.372 67.979 159.323 68.9803C160.274 69.9315 160.75 71.3333 160.75 73.1857V77.4662L159.924 74.988C161.075 72.5349 162.778 70.6575 165.03 69.3558C167.333 68.004 169.937 67.3282 172.841 67.3282C175.794 67.3282 178.222 67.9039 180.125 69.0554C182.027 70.1568 183.454 71.859 184.405 74.162C185.357 76.4149 185.832 79.2936 185.832 82.7981V99.8451C185.832 101.697 185.332 103.124 184.33 104.126C183.379 105.127 181.977 105.628 180.125 105.628C178.323 105.628 176.921 105.127 175.919 104.126C174.968 103.124 174.493 101.697 174.493 99.8451V83.3238C174.493 80.7705 174.017 78.9431 173.066 77.8417C172.165 76.6902 170.763 76.1145 168.86 76.1145C166.457 76.1145 164.53 76.8655 163.078 78.3674C161.676 79.8693 160.975 81.8719 160.975 84.3751V99.8451C160.975 103.7 159.098 105.628 155.343 105.628ZM212.246 105.778C208.241 105.778 204.736 105.002 201.732 103.45C198.778 101.848 196.5 99.5948 194.898 96.691C193.296 93.7873 192.495 90.3579 192.495 86.4028C192.495 83.4489 192.946 80.7955 193.847 78.4425C194.748 76.0895 196.05 74.0869 197.752 72.4348C199.504 70.7826 201.607 69.531 204.06 68.6799C206.513 67.7788 209.242 67.3282 212.246 67.3282C213.798 67.3282 215.45 67.5284 217.202 67.9289C218.954 68.2794 220.682 68.9052 222.384 69.8064C223.385 70.2569 224.061 70.9078 224.411 71.7589C224.812 72.5599 224.962 73.411 224.862 74.3122C224.762 75.1633 224.437 75.9393 223.886 76.6402C223.385 77.291 222.734 77.7416 221.933 77.9919C221.132 78.1922 220.231 78.042 219.23 77.5413C218.279 76.9906 217.277 76.5901 216.226 76.3398C215.225 76.0895 214.273 75.9643 213.372 75.9643C211.87 75.9643 210.544 76.2146 209.392 76.7153C208.241 77.1659 207.264 77.8417 206.463 78.7429C205.712 79.594 205.112 80.6704 204.661 81.972C204.261 83.2737 204.06 84.7757 204.06 86.4779C204.06 89.7821 204.861 92.3855 206.463 94.2879C208.115 96.1403 210.418 97.0665 213.372 97.0665C214.273 97.0665 215.225 96.9664 216.226 96.7661C217.227 96.5158 218.229 96.1153 219.23 95.5646C220.231 95.0639 221.132 94.9388 221.933 95.1891C222.734 95.4394 223.36 95.915 223.811 96.6159C224.311 97.2668 224.587 98.0428 224.637 98.9439C224.737 99.795 224.587 100.646 224.186 101.497C223.836 102.298 223.185 102.924 222.234 103.375C220.531 104.226 218.829 104.826 217.127 105.177C215.425 105.577 213.798 105.778 212.246 105.778ZM248.576 105.778C244.22 105.778 240.465 105.002 237.311 103.45C234.207 101.848 231.804 99.6198 230.102 96.7661C228.45 93.8624 227.624 90.458 227.624 86.5529C227.624 82.748 228.425 79.4188 230.027 76.5651C231.629 73.6613 233.857 71.4084 236.71 69.8064C239.614 68.1542 242.893 67.3282 246.548 67.3282C249.201 67.3282 251.605 67.7788 253.757 68.6799C255.91 69.531 257.762 70.7826 259.314 72.4348C260.866 74.0368 262.043 76.0144 262.844 78.3674C263.645 80.6704 264.046 83.2487 264.046 86.1024C264.046 87.0536 263.745 87.7795 263.144 88.2802C262.544 88.7308 261.667 88.956 260.516 88.956H236.936V83.0985H255.86L254.658 84.1499C254.658 82.0972 254.358 80.395 253.757 79.0433C253.157 77.6415 252.28 76.5901 251.129 75.8892C250.027 75.1883 248.651 74.8379 246.999 74.8379C245.146 74.8379 243.569 75.2634 242.267 76.1145C240.966 76.9656 239.965 78.1922 239.264 79.7942C238.563 81.3963 238.212 83.3238 238.212 85.5767V86.1775C238.212 89.9824 239.088 92.786 240.841 94.5883C242.643 96.3906 245.296 97.2918 248.801 97.2918C250.002 97.2918 251.379 97.1416 252.931 96.8412C254.483 96.5408 255.935 96.0652 257.287 95.4144C258.438 94.8637 259.465 94.6884 260.366 94.8887C261.267 95.0389 261.968 95.4394 262.469 96.0902C262.969 96.7411 263.245 97.492 263.295 98.3431C263.395 99.1942 263.219 100.045 262.769 100.896C262.318 101.697 261.567 102.373 260.516 102.924C258.814 103.875 256.886 104.576 254.734 105.027C252.631 105.527 250.578 105.778 248.576 105.778ZM311.066 105.628C309.163 105.628 307.711 105.102 306.71 104.05C305.709 102.999 305.208 101.522 305.208 99.6198V61.6208H291.916C290.364 61.6208 289.162 61.1953 288.311 60.3442C287.46 59.4931 287.035 58.3166 287.035 56.8146C287.035 55.2626 287.46 54.0861 288.311 53.2851C289.162 52.434 290.364 52.0084 291.916 52.0084H330.14C331.692 52.0084 332.894 52.434 333.745 53.2851C334.596 54.0861 335.021 55.2626 335.021 56.8146C335.021 58.3166 334.596 59.4931 333.745 60.3442C332.894 61.1953 331.692 61.6208 330.14 61.6208H316.848V99.6198C316.848 101.522 316.347 102.999 315.346 104.05C314.395 105.102 312.968 105.628 311.066 105.628ZM338.982 105.628C337.079 105.628 335.627 105.127 334.626 104.126C333.625 103.124 333.124 101.697 333.124 99.8451V73.1857C333.124 71.3333 333.6 69.9315 334.551 68.9803C335.552 67.979 336.929 67.4784 338.681 67.4784C340.484 67.4784 341.86 67.979 342.812 68.9803C343.763 69.9315 344.238 71.3333 344.238 73.1857V77.0908H343.487C344.088 74.0869 345.415 71.7589 347.468 70.1068C349.52 68.4546 352.174 67.5284 355.428 67.3282C356.679 67.228 357.631 67.5535 358.281 68.3044C358.982 69.0053 359.358 70.1818 359.408 71.834C359.508 73.386 359.183 74.6126 358.432 75.5137C357.731 76.4149 356.529 76.9656 354.827 77.1659L353.1 77.316C350.246 77.5664 348.118 78.3924 346.717 79.7942C345.365 81.196 344.689 83.2237 344.689 85.8771V99.8451C344.689 101.697 344.188 103.124 343.187 104.126C342.236 105.127 340.834 105.628 338.982 105.628ZM369.779 105.552C367.927 105.552 366.5 105.027 365.499 103.975C364.548 102.874 364.072 101.347 364.072 99.3945V73.7114C364.072 71.7088 364.548 70.1818 365.499 69.1305C366.5 68.0291 367.927 67.4784 369.779 67.4784C371.582 67.4784 372.959 68.0291 373.91 69.1305C374.911 70.1818 375.412 71.7088 375.412 73.7114V99.3945C375.412 101.347 374.936 102.874 373.985 103.975C373.034 105.027 371.632 105.552 369.779 105.552ZM369.779 61.3204C367.677 61.3204 366.05 60.8448 364.898 59.8936C363.797 58.8923 363.246 57.4905 363.246 55.6882C363.246 53.8358 363.797 52.434 364.898 51.4828C366.05 50.4815 367.677 49.9808 369.779 49.9808C371.882 49.9808 373.484 50.4815 374.586 51.4828C375.687 52.434 376.238 53.8358 376.238 55.6882C376.238 57.4905 375.687 58.8923 374.586 59.8936C373.484 60.8448 371.882 61.3204 369.779 61.3204ZM399.787 105.628C398.335 105.628 397.058 105.252 395.957 104.501C394.855 103.7 393.979 102.524 393.328 100.972L381.989 74.8379C381.438 73.5362 381.238 72.3346 381.388 71.2332C381.538 70.0817 382.064 69.1806 382.965 68.5297C383.916 67.8288 385.218 67.4784 386.87 67.4784C388.222 67.4784 389.323 67.8038 390.174 68.4546C391.025 69.0554 391.776 70.2319 392.427 71.9842L401.288 94.5132H398.885L408.122 71.9091C408.823 70.2069 409.599 69.0554 410.45 68.4546C411.301 67.8038 412.478 67.4784 413.98 67.4784C415.281 67.4784 416.308 67.8288 417.059 68.5297C417.86 69.1806 418.335 70.0567 418.486 71.1581C418.686 72.2595 418.486 73.4611 417.885 74.7628L406.32 100.972C405.669 102.574 404.793 103.75 403.692 104.501C402.64 105.252 401.339 105.628 399.787 105.628ZM429.989 105.552C428.137 105.552 426.71 105.027 425.708 103.975C424.757 102.874 424.282 101.347 424.282 99.3945V73.7114C424.282 71.7088 424.757 70.1818 425.708 69.1305C426.71 68.0291 428.137 67.4784 429.989 67.4784C431.791 67.4784 433.168 68.0291 434.119 69.1305C435.121 70.1818 435.621 71.7088 435.621 73.7114V99.3945C435.621 101.347 435.146 102.874 434.194 103.975C433.243 105.027 431.841 105.552 429.989 105.552ZM429.989 61.3204C427.886 61.3204 426.259 60.8448 425.108 59.8936C424.006 58.8923 423.455 57.4905 423.455 55.6882C423.455 53.8358 424.006 52.434 425.108 51.4828C426.259 50.4815 427.886 49.9808 429.989 49.9808C432.092 49.9808 433.694 50.4815 434.795 51.4828C435.897 52.434 436.447 53.8358 436.447 55.6882C436.447 57.4905 435.897 58.8923 434.795 59.8936C433.694 60.8448 432.092 61.3204 429.989 61.3204ZM456.842 105.778C454.138 105.778 451.71 105.252 449.557 104.201C447.405 103.149 445.728 101.722 444.526 99.9202C443.324 98.1179 442.724 96.0902 442.724 93.8373C442.724 91.1339 443.425 89.0061 444.826 87.4541C446.228 85.852 448.506 84.7256 451.66 84.0748C454.814 83.3739 458.995 83.0234 464.201 83.0234H468.181V88.8809H464.276C461.723 88.8809 459.645 89.0311 458.043 89.3315C456.491 89.5819 455.365 90.0324 454.664 90.6833C454.013 91.3341 453.688 92.2353 453.688 93.3868C453.688 94.7886 454.163 95.94 455.115 96.8412C456.116 97.7424 457.543 98.1929 459.395 98.1929C460.847 98.1929 462.124 97.8675 463.225 97.2167C464.377 96.5158 465.278 95.5896 465.929 94.4381C466.579 93.2366 466.905 91.8848 466.905 90.3829V81.7468C466.905 79.5439 466.404 77.9919 465.403 77.0908C464.402 76.1395 462.699 75.6639 460.296 75.6639C458.945 75.6639 457.468 75.8391 455.866 76.1896C454.314 76.49 452.586 77.0157 450.684 77.7666C449.583 78.2673 448.606 78.3924 447.755 78.1421C446.904 77.8417 446.253 77.3411 445.803 76.6402C445.352 75.8892 445.127 75.0882 445.127 74.2371C445.127 73.3359 445.377 72.4848 445.878 71.6838C446.378 70.8327 447.204 70.2069 448.356 69.8064C450.709 68.8551 452.912 68.2043 454.964 67.8539C457.067 67.5034 458.995 67.3282 460.747 67.3282C464.602 67.3282 467.756 67.9039 470.209 69.0554C472.712 70.1568 474.59 71.884 475.841 74.2371C477.093 76.54 477.719 79.5189 477.719 83.1736V99.8451C477.719 101.697 477.268 103.124 476.367 104.126C475.466 105.127 474.164 105.628 472.462 105.628C470.76 105.628 469.433 105.127 468.482 104.126C467.581 103.124 467.13 101.697 467.13 99.8451V97.0665L467.656 97.5171C467.355 99.2193 466.705 100.696 465.703 101.948C464.752 103.149 463.525 104.101 462.024 104.801C460.522 105.452 458.794 105.778 456.842 105.778Z" fill="white"/>
<path fill-rule="evenodd" clip-rule="evenodd" d="M492.505 2.34158C493.185 -0.767477 497.614 -0.786071 498.324 2.31927L498.354 2.46431L498.421 2.75439C499.239 6.2279 502.05 8.87953 505.568 9.49316C508.811 10.0584 508.811 14.7146 505.568 15.2799C503.838 15.581 502.236 16.3865 500.962 17.5954C499.689 18.8042 498.801 20.3625 498.41 22.0744L498.32 22.4538C497.614 25.5591 493.189 25.5405 492.505 22.4314L492.434 22.1042C492.059 20.3855 491.18 18.8177 489.909 17.6009C488.639 16.384 487.035 15.5734 485.302 15.2724C482.067 14.7109 482.067 10.0622 485.302 9.50059C487.029 9.20088 488.628 8.39514 489.896 7.18551C491.164 5.97589 492.045 4.41685 492.427 2.70604L492.479 2.46059L492.505 2.34158ZM495.208 28.8132C493.436 28.7787 491.743 28.076 490.467 26.8459C490.186 27.0308 489.942 27.2652 489.745 27.5376C488.072 29.7541 486.112 32.0189 483.896 34.2317C482.215 35.9127 480.512 37.4412 478.831 38.8061C477.151 37.4412 475.447 35.9127 473.767 34.2317C472.156 32.6243 470.629 30.9348 469.193 29.1702C470.557 27.4855 472.09 25.786 473.767 24.105C475.861 22.0034 478.097 20.0488 480.46 18.255C480.707 18.0783 480.923 17.8622 481.1 17.6154C480.393 16.9708 479.826 16.1872 479.436 15.3138C479.046 14.4403 478.84 13.4957 478.831 12.539C475.183 9.98406 471.576 8.0911 468.356 7.10558C464.868 6.03823 460.778 5.75187 458.096 8.42953C456.36 10.17 455.888 12.5353 456.021 14.7852C456.155 17.0389 456.91 19.5158 458.052 22.0298C459.216 24.5313 460.607 26.9213 462.205 29.1702C460.607 31.4167 459.217 33.8043 458.052 36.3032C456.91 38.8172 456.155 41.294 456.021 43.5477C455.888 45.7977 456.356 48.163 458.096 49.9035C459.837 51.6402 462.202 52.1125 464.452 51.9786C466.701 51.841 469.182 51.0898 471.695 49.9481C473.964 48.9179 476.377 47.5122 478.835 45.794C481.289 47.5122 483.699 48.9179 485.971 49.9481C488.481 51.0898 490.961 51.8448 493.215 51.9786C495.465 52.1125 497.826 51.6402 499.566 49.8997C502.247 47.2221 501.961 43.1312 500.894 39.6428C499.875 36.3181 497.893 32.5805 495.208 28.8132ZM466.724 12.4386C468.865 13.0931 471.42 14.3353 474.187 16.1352C471.166 18.6983 468.36 21.5043 465.798 24.5252C464.791 22.9915 463.898 21.3855 463.128 19.7203C462.15 17.5633 461.67 15.7782 461.588 14.4505C461.51 13.1154 461.837 12.5799 462.042 12.3754C462.377 12.0406 463.611 11.4902 466.724 12.4386ZM463.128 38.6164C463.812 37.1102 464.708 35.4925 465.798 33.8115C468.362 36.8325 471.169 39.6385 474.191 42.2015C472.658 43.2097 471.054 44.1035 469.39 44.8754C467.233 45.8535 465.448 46.3332 464.121 46.4151C462.782 46.4932 462.25 46.1659 462.046 45.9613C461.841 45.7568 461.514 45.2176 461.592 43.8862C461.674 42.5585 462.15 40.7734 463.131 38.6164H463.128ZM488.277 44.8754C486.613 44.1045 485.01 43.2107 483.48 42.2015C486.498 39.6381 489.301 36.8321 491.861 33.8115C493.657 36.5821 494.899 39.137 495.554 41.2792C496.506 44.3882 495.955 45.6266 495.621 45.9613C495.413 46.1659 494.877 46.4932 493.546 46.4113C492.215 46.337 490.433 45.8535 488.277 44.8754ZM475.113 29.1702C475.113 28.1839 475.505 27.2379 476.202 26.5405C476.899 25.8431 477.845 25.4512 478.831 25.4512C479.818 25.4512 480.763 25.8431 481.461 26.5405C482.158 27.2379 482.55 28.1839 482.55 29.1702C482.55 30.1565 482.158 31.1025 481.461 31.7999C480.763 32.4974 479.818 32.8892 478.831 32.8892C477.845 32.8892 476.899 32.4974 476.202 31.7999C475.505 31.1025 475.113 30.1565 475.113 29.1702Z" fill="#FDE047"/>
</svg>
