<svg width="156" height="156" viewBox="0 0 156 156" fill="none" xmlns="http://www.w3.org/2000/svg">
<path d="M0 16C0 7.16344 7.16344 0 16 0H140C148.837 0 156 7.16344 156 16V140C156 148.837 148.837 156 140 156H16C7.16344 156 0 148.837 0 140V16Z" fill="#422006"/>
<path fill-rule="evenodd" clip-rule="evenodd" d="M104.009 30.6832C105.37 24.465 114.228 24.4279 115.648 30.6385L115.708 30.9286L115.842 31.5088C117.478 38.4558 123.1 43.7591 130.136 44.9863C136.621 46.1169 136.621 55.4292 130.136 56.5597C126.676 57.162 123.472 58.7731 120.925 61.1908C118.377 63.6085 116.601 66.725 115.819 70.1488L115.641 70.9075C114.228 77.1182 105.378 77.081 104.009 70.8629L103.868 70.2084C103.117 66.771 101.359 63.6354 98.8185 61.2017C96.2778 58.7681 93.0696 57.1468 89.6034 56.5449C83.133 55.4217 83.133 46.1243 89.6034 45.0012C93.0571 44.4018 96.255 42.7903 98.7919 40.371C101.329 37.9518 103.09 34.8337 103.853 31.4121L103.957 30.9212L104.009 30.6832ZM109.416 83.6264C105.872 83.5574 102.485 82.152 99.9336 79.6917C99.3728 80.0616 98.8839 80.5304 98.4908 81.0752C95.1441 85.5082 91.2247 90.0379 86.7921 94.4635C83.4305 97.8254 80.0243 100.882 76.6627 103.612C73.3011 100.882 69.8948 97.8254 66.5332 94.4635C63.3121 91.2485 60.2588 87.8697 57.3855 84.3404C60.1149 80.971 63.179 77.5719 66.5332 74.21C70.7213 70.0068 75.1942 66.0976 79.9202 62.5101C80.4137 62.1565 80.8458 61.7243 81.1994 61.2308C79.7855 59.9416 78.6529 58.3745 77.8723 56.6275C77.0917 54.8806 76.6799 52.9914 76.6627 51.078C69.3668 45.9681 62.1527 42.1822 55.7121 40.2112C48.736 38.0765 40.5551 37.5037 35.1929 42.8591C31.7197 46.34 30.7752 51.0705 31.0429 55.5705C31.3107 60.0779 32.8204 65.0315 35.1036 70.0596C37.4328 75.0626 40.2134 79.8427 43.411 84.3404C40.2142 88.8334 37.4336 93.6085 35.1036 98.6064C32.8204 103.634 31.3107 108.588 31.0429 113.095C30.7752 117.595 31.7123 122.326 35.1929 125.807C38.6735 129.28 43.4035 130.225 47.903 129.957C52.4026 129.682 57.3632 128.18 62.3907 125.896C66.9274 123.836 71.7541 121.024 76.6701 117.588C81.5787 121.024 86.398 123.836 90.9421 125.896C95.9622 128.18 100.923 129.69 105.43 129.957C109.929 130.225 114.652 129.28 118.132 125.799C123.495 120.444 122.922 112.262 120.788 105.286C118.75 98.6361 114.786 91.161 109.416 83.6264ZM52.4472 50.8772C56.731 52.1862 61.8403 54.6705 67.3736 58.2705C61.3324 63.3966 55.7209 69.0086 50.5953 75.0504C48.5811 71.9831 46.7963 68.7711 45.2554 65.4406C43.2994 61.1266 42.34 57.5564 42.1764 54.9011C42.0202 52.2309 42.6747 51.1598 43.0838 50.7507C43.7531 50.0813 46.2222 48.9805 52.4472 50.8772ZM45.2554 103.233C46.6239 100.22 48.4162 96.9849 50.5953 93.623C55.7234 99.665 61.3374 105.277 67.3811 110.403C64.3166 112.419 61.1074 114.207 57.7796 115.751C53.4661 117.707 49.8962 118.666 47.2411 118.83C44.5637 118.986 43.5002 118.332 43.0912 117.923C42.6821 117.514 42.0277 116.435 42.1839 113.772C42.3475 111.117 43.2994 107.547 45.2628 103.233H45.2554ZM95.5531 115.751C92.2268 114.209 89.0199 112.421 85.9592 110.403C91.9952 105.276 97.6017 99.6642 102.723 93.623C106.315 99.1642 108.799 104.274 110.108 108.558C112.012 114.776 110.911 117.253 110.242 117.923C109.825 118.332 108.754 118.986 106.092 118.823C103.429 118.674 99.8667 117.707 95.5531 115.751ZM69.2255 84.3404C69.2255 82.3678 70.009 80.4759 71.4038 79.081C72.7985 77.6861 74.6902 76.9025 76.6627 76.9025C78.6351 76.9025 80.5268 77.6861 81.9216 79.081C83.3163 80.4759 84.0999 82.3678 84.0999 84.3404C84.0999 86.3131 83.3163 88.205 81.9216 89.5998C80.5268 90.9947 78.6351 91.7784 76.6627 91.7784C74.6902 91.7784 72.7985 90.9947 71.4038 89.5998C70.009 88.205 69.2255 86.3131 69.2255 84.3404Z" fill="#FDE047"/>
</svg>
